<svg version="1.1" viewBox="0.0 0.0 512.0 512.0" fill="none" stroke="none" stroke-linecap="square" stroke-miterlimit="10" xmlns:xlink="http://www.w3.org/1999/xlink" xmlns="http://www.w3.org/2000/svg"><clipPath id="g32f8c22b223_0_17.0"><path d="m0 0l512.0 0l0 512.0l-512.0 0l0 -512.0z" clip-rule="nonzero"/></clipPath><g clip-path="url(#g32f8c22b223_0_17.0)"><path fill="#000000" fill-opacity="0.0" d="m0 0l512.0 0l0 512.0l-512.0 0z" fill-rule="evenodd"/><path fill="#373647" d="m11.3884535 162.75577l116.34646 0l0 116.346466l-116.34646 0z" fill-rule="evenodd"/><path stroke="#ffffff" stroke-width="8.0" stroke-linejoin="round" stroke-linecap="butt" d="m11.3884535 162.75577l116.34646 0l0 116.346466l-116.34646 0z" fill-rule="evenodd"/><path fill="#373647" d="m360.529 162.755l0 116.346466l-116.346466 0l0 -116.346466z" fill-rule="evenodd"/><path stroke="#ffffff" stroke-width="8.0" stroke-linejoin="round" stroke-linecap="butt" d="m360.529 162.755l0 116.346466l-116.346466 0l0 -116.346466z" fill-rule="evenodd"/><path fill="#373647" d="m244.14906 162.755l0 116.346466l-116.34646 0l0 -116.346466z" fill-rule="evenodd"/><path stroke="#ffffff" stroke-width="8.0" stroke-linejoin="round" stroke-linecap="butt" d="m244.14906 162.755l0 116.346466l-116.34646 0l0 -116.346466z" fill-rule="evenodd"/><path fill="#373647" d="m244.14906 279.1343l0 116.346466l-116.34646 0l0 -116.346466z" fill-rule="evenodd"/><path stroke="#ffffff" stroke-width="8.0" stroke-linejoin="round" stroke-linecap="butt" d="m244.14906 279.1343l0 116.346466l-116.34646 0l0 -116.346466z" fill-rule="evenodd"/><path fill="#373647" d="m244.14906 46.377228l0 116.34645l-116.34646 0l0 -116.34645z" fill-rule="evenodd"/><path stroke="#ffffff" stroke-width="8.0" stroke-linejoin="round" stroke-linecap="butt" d="m244.14906 46.377228l0 116.34645l-116.34646 0l0 -116.34645z" fill-rule="evenodd"/><path fill="#373647" d="m499.68723 345.98602l0 116.346466l-116.346466 0l0 -116.346466z" fill-rule="evenodd"/><path stroke="#ffffff" stroke-width="8.0" stroke-linejoin="round" stroke-linecap="butt" d="m499.68723 345.98602l0 116.346466l-116.346466 0l0 -116.346466z" fill-rule="evenodd"/><path fill="#373647" d="m383.30728 345.98602l0 116.346466l-116.346436 0l0 -116.346466z" fill-rule="evenodd"/><path stroke="#ffffff" stroke-width="8.0" stroke-linejoin="round" stroke-linecap="butt" d="m383.30728 345.98602l0 116.346466l-116.346436 0l0 -116.346466z" fill-rule="evenodd"/></g></svg>
